<svg width="33px" height="27px" viewBox="0 0 33 27" version="1.1" xmlns="http://www.w3.org/2000/svg" xmlns:xlink="http://www.w3.org/1999/xlink"> <g> <path d="M32.0585086,12.0721073 L24.5683211,4.13655727 C24.1079656,3.64830332 23.3395255,3.6260352 22.8512715,4.08677029 C22.3637767,4.54712582 22.341129,5.31594549 22.8018641,5.80381986 L29.5053921,12.9053274 L22.8018641,20.0076573 C22.341129,20.4955316 22.3637767,21.2639717 22.8512715,21.7247068 C23.086099,21.9461861 23.3860861,22.0558819 23.6849345,22.0558819 C24.0076325,22.0558819 24.3298877,21.9279667 24.5683844,21.675679 L32.0585719,13.7397494 C32.5002019,13.2713597 32.5002019,12.5401175 32.0585086,12.0721073 Z"></path> <path d="M9.58832566,20.0072777 L2.88524047,12.9053274 L9.58832566,5.80344029 C10.0486812,5.31556592 10.0264131,4.54668299 9.53853869,4.08639072 C9.05104389,3.6260352 8.28178139,3.64830332 7.82148912,4.1361777 L0.331301621,12.0717277 C-0.110391699,12.5397379 -0.110391699,13.2713597 0.331301621,13.7394331 L7.82186869,21.6753627 C8.06074494,21.9284096 8.38262057,22.0559452 8.70531859,22.0559452 C9.00410369,22.0559452 9.30415402,21.9458065 9.53853869,21.7243273 C10.0268559,21.2639717 10.0486812,20.4951521 9.58832566,20.0072777 Z"></path> <path d="M18.1599722,0.044093418 C17.4971792,-0.0563029297 16.8768981,0.398738613 16.7756793,1.06153164 L13.2127793,24.3823316 C13.1115606,25.0455042 13.5670449,25.6654058 14.2302175,25.7666246 C14.2925936,25.775924 14.354084,25.7804156 14.4152581,25.7804156 C15.0051736,25.7804156 15.5225912,25.3500462 15.6145105,24.7491863 L19.1774105,1.42838635 C19.2786292,0.765150488 18.8231448,0.145312168 18.1599722,0.044093418 Z"></path> </g> </svg>